<?xml version="1.0" encoding="UTF-8"?>
<svg version="1.1" xmlns="http://www.w3.org/2000/svg" width="225" height="224">
<path d="M0 0 C74.25 0 148.5 0 225 0 C225 73.92 225 147.84 225 224 C150.75 224 76.5 224 0 224 C0 150.08 0 76.16 0 0 Z " fill="#FDFEFE" transform="translate(0,0)"/>
<path d="M0 0 C4.62 0 9.24 0 14 0 C15.32 4.95 16.64 9.9 18 15 C19.32 10.05 20.64 5.1 22 0 C26.62 0 31.24 0 36 0 C36 9.24 36 18.48 36 28 C33.03 28 30.06 28 27 28 C26.67 22.06 26.34 16.12 26 10 C24.72759105 14.80111465 24.72759105 14.80111465 23.45727539 19.6027832 C22.70536934 22.43123784 21.92574837 25.22275488 21 28 C18.36 28 15.72 28 13 28 C11.68 22.72 10.36 17.44 9 12 C8.67 17.28 8.34 22.56 8 28 C5.36 28 2.72 28 0 28 C0 18.76 0 9.52 0 0 Z " fill="#1424E5" transform="translate(95,95)"/>
<path d="M0 0 C2.5 1.8125 2.5 1.8125 5 4 C5 4.99 5 5.98 5 7 C5.66 6.67 6.32 6.34 7 6 C7.65555119 3.47266765 7.65555119 3.47266765 8 1 C14.625 -0.125 14.625 -0.125 18 1 C18 2.65 18 4.3 18 6 C16.68 5.34 15.36 4.68 14 4 C13.01 4.66 12.02 5.32 11 6 C12.423125 6.2165625 12.423125 6.2165625 13.875 6.4375 C17 7 17 7 19 8 C19 8.66 19 9.32 19 10 C20.32 10 21.64 10 23 10 C23.495 10.99 23.495 10.99 24 12 C25.32 12 26.64 12 28 12 C26.76141604 16.95433585 25.27241667 19.18645731 21 22 C17.83990467 23.05336511 15.4446864 23.20032888 12.125 23.25 C10.58199219 23.28867188 10.58199219 23.28867188 9.0078125 23.328125 C5.6251811 22.95911067 3.76064146 21.93550508 1 20 C1 20.99 1 21.98 1 23 C1.99 23 2.98 23 4 23 C3.67 23.66 3.34 24.32 3 25 C7.06069586 26.8836688 10.67303626 27.42862682 15.125 27.75 C16.34445313 27.84796875 17.56390625 27.9459375 18.8203125 28.046875 C22.15986869 28.28513627 22.15986869 28.28513627 25 26 C25.78988145 24.04614933 25.78988145 24.04614933 26.1875 21.875 C26.455625 20.59625 26.72375 19.3175 27 18 C27.495 18.99 27.495 18.99 28 20 C28.763125 19.67 29.52625 19.34 30.3125 19 C33 18 33 18 36 18 C31.62826707 24.67351656 27.08666752 28.45666624 20 32 C21.485 32.495 21.485 32.495 23 33 C17.75714802 34.74761733 13.5381479 35.44662483 8 35 C5.1875 33.5625 5.1875 33.5625 3 32 C2.01 31.67 1.02 31.34 0 31 C-0.33 31.66 -0.66 32.32 -1 33 C-2.34783459 31.28211261 -3.67779443 29.5501903 -5 27.8125 C-6.11375 26.36810547 -6.11375 26.36810547 -7.25 24.89453125 C-9.07943499 21.86861311 -9.40394708 20.45248521 -9 17 C-6.36 17.33 -3.72 17.66 -1 18 C-1.350625 17.2575 -1.70125 16.515 -2.0625 15.75 C-3.06311592 12.81485998 -2.98017492 11.84250726 -2 9 C-2 8.34 -2 7.68 -2 7 C-1.45812401 4.60026347 -0.77959573 2.33878718 0 0 Z " fill="#0B85AD" transform="translate(24,100)"/>
<path d="M0 0 C3.50625 -0.0825 7.0125 -0.165 10.625 -0.25 C11.71893066 -0.28641602 12.81286133 -0.32283203 13.93994141 -0.36035156 C19.92702877 -0.42844905 23.52134766 -0.12956999 28 4 C29.0625 7 29.0625 7 29 10 C28.2265625 11.0209375 28.2265625 11.0209375 27.4375 12.0625 C26.963125 12.701875 26.48875 13.34125 26 14 C26.64108137 15.67667436 27.31471955 17.34089996 28 19 C28.1898149 22.33971616 28.11680224 25.65815822 28 29 C26.52093108 29.02689216 25.04172517 29.04634621 23.5625 29.0625 C22.32693359 29.07990234 22.32693359 29.07990234 21.06640625 29.09765625 C19 29 19 29 18 28 C17.76807135 26.48530552 17.58784762 24.96245438 17.4375 23.4375 C17.31181641 22.19806641 17.31181641 22.19806641 17.18359375 20.93359375 C17.12300781 20.29550781 17.06242187 19.65742187 17 19 C14.69 18.67 12.38 18.34 10 18 C10 21.63 10 25.26 10 29 C6.7 29 3.4 29 0 29 C0 19.43 0 9.86 0 0 Z " fill="#1F30E5" transform="translate(165,95)"/>
<path d="M0 0 C2.97 0 5.94 0 9 0 C9.33 3.3 9.66 6.6 10 10 C10.52207031 9.278125 11.04414062 8.55625 11.58203125 7.8125 C17.52237746 0.32204594 17.52237746 0.32204594 22.046875 -0.6640625 C24.761393 -0.62890035 27.32447305 -0.45008865 30 0 C26.79239749 3.80635497 23.59253891 7.54563567 20 11 C21.6708229 14.79148274 24.10970192 17.92940296 26.625 21.1875 C31 26.87097393 31 26.87097393 31 28 C27.16711813 28.62379633 23.80568558 28.86724738 20 28 C16.95719511 25.0402751 14.96020806 21.74647274 13 18 C12.01 18.33 11.02 18.66 10 19 C9.67 21.97 9.34 24.94 9 28 C6.03 28 3.06 28 0 28 C0 18.76 0 9.52 0 0 Z " fill="#1122E5" transform="translate(61,95)"/>
<path d="M0 0 C0.33 -0.66 0.66 -1.32 1 -2 C2.34813187 -0.45025019 3.6780343 1.11537065 5 2.6875 C6.11375 3.99267578 6.11375 3.99267578 7.25 5.32421875 C9.15423648 8.23583033 9.39190361 9.60146088 9 13 C7.68 13.33 6.36 13.66 5 14 C5.66 14.66 6.32 15.32 7 16 C6.625 18.125 6.625 18.125 6 20 C3.03 20.495 3.03 20.495 0 21 C-0.495 19.515 -0.495 19.515 -1 18 C-2.32 18 -3.64 18 -5 18 C-5 17.34 -5 16.68 -5 16 C-8.3 15.67 -11.6 15.34 -15 15 C-14.67 14.01 -14.34 13.02 -14 12 C-13.01 12 -12.02 12 -11 12 C-10.67 11.34 -10.34 10.68 -10 10 C-10 10.66 -10 11.32 -10 12 C-9.34 12 -8.68 12 -8 12 C-7.67 11.34 -7.34 10.68 -7 10 C-6.67 9.67 -6.34 9.34 -6 9 C-9.3 9 -12.6 9 -16 9 C-16 10.65 -16 12.3 -16 14 C-16.99 14.33 -17.98 14.66 -19 15 C-19 14.01 -19 13.02 -19 12 C-19.99 11.67 -20.98 11.34 -22 11 C-22.33 10.34 -22.66 9.68 -23 9 C-23.99 10.485 -23.99 10.485 -25 12 C-25.99 12 -26.98 12 -28 12 C-28 11.34 -28 10.68 -28 10 C-29.65 10.66 -31.3 11.32 -33 12 C-32.67 11.01 -32.34 10.02 -32 9 C-31.34 8.67 -30.68 8.34 -30 8 C-29.34227572 4.97065509 -29.34227572 4.97065509 -29 2 C-27 1.33333333 -25 0.66666667 -23 0 C-22.113125 -0.37125 -21.22625 -0.7425 -20.3125 -1.125 C-13.54269175 -2.91325124 -6.47504393 -2.800019 0 0 Z " fill="#ECEEF5" transform="translate(48,92)"/>
<path d="M0 0 C8.25 0 16.5 0 25 0 C25 1.98 25 3.96 25 6 C19.72 6 14.44 6 9 6 C9 7.98 9 9.96 9 12 C13.95 12 18.9 12 24 12 C24 13.98 24 15.96 24 18 C19.05 18 14.1 18 9 18 C9 21.3 9 24.6 9 28 C6.03 28 3.06 28 0 28 C0 18.76 0 9.52 0 0 Z " fill="#101FE5" transform="translate(137,95)"/>
<path d="M0 0 C6.625 0.75 6.625 0.75 10 3 C10 3.99 10 4.98 10 6 C10.99 6 11.98 6 13 6 C12.67 6.66 12.34 7.32 12 8 C16.06069586 9.8836688 19.67303626 10.42862682 24.125 10.75 C25.34445313 10.84796875 26.56390625 10.9459375 27.8203125 11.046875 C31.15986869 11.28513627 31.15986869 11.28513627 34 9 C34.78988145 7.04614933 34.78988145 7.04614933 35.1875 4.875 C35.455625 3.59625 35.72375 2.3175 36 1 C36.495 1.99 36.495 1.99 37 3 C37.763125 2.67 38.52625 2.34 39.3125 2 C42 1 42 1 45 1 C40.62826707 7.67351656 36.08666752 11.45666624 29 15 C29.99 15.33 30.98 15.66 32 16 C26.75714802 17.74761733 22.5381479 18.44662483 17 18 C14.1875 16.5625 14.1875 16.5625 12 15 C11.01 14.67 10.02 14.34 9 14 C8.67 14.66 8.34 15.32 8 16 C6.65216541 14.28211261 5.32220557 12.5501903 4 10.8125 C3.2575 9.84957031 2.515 8.88664062 1.75 7.89453125 C-0.07943499 4.86861311 -0.40394708 3.45248521 0 0 Z " fill="#101010" transform="translate(15,117)"/>
<path d="M0 0 C2.97 0 5.94 0 9 0 C9 9.57 9 19.14 9 29 C6.03 29 3.06 29 0 29 C0 19.43 0 9.86 0 0 Z " fill="#1324E6" transform="translate(198,95)"/>
<path d="M0 0 C0 9.24 0 18.48 0 28 C-2.64458379 29.32229189 -4.67761301 29.09677194 -7.625 29.0625 C-8.62789063 29.05347656 -9.63078125 29.04445313 -10.6640625 29.03515625 C-11.43492188 29.02355469 -12.20578125 29.01195313 -13 29 C-13 28.67 -13 28.34 -13 28 C-10.03 27.67 -7.06 27.34 -4 27 C-4.721875 26.10796875 -5.44375 25.2159375 -6.1875 24.296875 C-7.12550731 23.11498579 -8.06297954 21.93267176 -9 20.75 C-9.47695312 20.16347656 -9.95390625 19.57695313 -10.4453125 18.97265625 C-13.07919895 15.62385776 -14 14.39260489 -14 10 C-12.171875 7.67578125 -12.171875 7.67578125 -9.75 5.3125 C-8.96109375 4.52488281 -8.1721875 3.73726563 -7.359375 2.92578125 C-4.91789392 0.93298296 -3.1570857 0 0 0 Z " fill="#F4F5FA" transform="translate(95,95)"/>
<path d="M0 0 C0.33 -0.66 0.66 -1.32 1 -2 C2.34813187 -0.45025019 3.6780343 1.11537065 5 2.6875 C6.11375 3.99267578 6.11375 3.99267578 7.25 5.32421875 C9.15423648 8.23583033 9.39190361 9.60146088 9 13 C2.375 12.25 2.375 12.25 -1 10 C-1.33 9.34 -1.66 8.68 -2 8 C-5.87335856 3.87674734 -9.2060071 3.46654815 -14.59765625 3.17578125 C-17.95353511 2.93022914 -20.81363798 2.06212067 -24 1 C-16.35714387 -3.07618993 -8.04493813 -3.47889216 0 0 Z " fill="#1324E5" transform="translate(48,92)"/>
<path d="M0 0 C0.66 0.66 1.32 1.32 2 2 C1.8984375 4.09375 1.8984375 4.09375 1.375 6.5 C1.13910156 7.69109375 1.13910156 7.69109375 0.8984375 8.90625 C0 11 0 11 -1.65234375 12.29296875 C-4.87439611 13.26333726 -7.587728 13.05917478 -10.9375 12.8125 C-12.14277344 12.73644531 -13.34804688 12.66039062 -14.58984375 12.58203125 C-18.10780471 11.98160034 -20.15237172 11.11343314 -23 9 C-23.33 8.34 -23.66 7.68 -24 7 C-24.99 7 -25.98 7 -27 7 C-26.34 6.01 -25.68 5.02 -25 4 C-24.29617187 4.32226562 -23.59234375 4.64453125 -22.8671875 4.9765625 C-17.4989841 6.8927332 -11.10255337 7.11670852 -5.69921875 5.171875 C-3.16425505 3.76531129 -1.31737356 2.63474713 0 0 Z " fill="#E9EEEE" transform="translate(50,116)"/>
<path d="M0 0 C0.66 0.66 1.32 1.32 2 2 C1.67 2.66 1.34 3.32 1 4 C0.01 4.33 -0.98 4.66 -2 5 C-0.68 5.66 0.64 6.32 2 7 C0.35 7.66 -1.3 8.32 -3 9 C-3 9.66 -3 10.32 -3 11 C-5.64 11.33 -8.28 11.66 -11 12 C-11 11.34 -11 10.68 -11 10 C-12.65 10 -14.3 10 -16 10 C-14.68 9.34 -13.36 8.68 -12 8 C-12.66 8 -13.32 8 -14 8 C-14.66 8 -15.32 8 -16 8 C-16 7.34 -16 6.68 -16 6 C-15.01 5.67 -14.02 5.34 -13 5 C-12.34 4.34 -11.68 3.68 -11 3 C-10.01 3.33 -9.02 3.66 -8 4 C-8.33 3.01 -8.66 2.02 -9 1 C-5.66429909 -1.10025613 -3.74952434 -1.18406032 0 0 Z " fill="#06709C" transform="translate(41,107)"/>
<path d="M0 0 C2.5 1.8125 2.5 1.8125 5 4 C5 4.99 5 5.98 5 7 C5.66 6.67 6.32 6.34 7 6 C7.65555119 3.47266765 7.65555119 3.47266765 8 1 C14.625 -0.125 14.625 -0.125 18 1 C18 2.65 18 4.3 18 6 C16.68 5.34 15.36 4.68 14 4 C10.67098753 6.21934164 10.24976756 7.34683329 9 11 C10.32 11.33 11.64 11.66 13 12 C10.1875 12.1875 10.1875 12.1875 7 12 C5.4375 10.5625 5.4375 10.5625 4 9 C1.39388923 8.27802838 1.39388923 8.27802838 -1 8 C-1.93065133 5.39417629 -2.14917407 4.35801776 -1.0625 1.75 C-0.711875 1.1725 -0.36125 0.595 0 0 Z " fill="#BEC5DA" transform="translate(24,100)"/>
<path d="M0 0 C0.33 0.66 0.66 1.32 1 2 C1.66 2 2.32 2 3 2 C3.33 1.34 3.66 0.68 4 0 C4.66 0 5.32 0 6 0 C6.12375 0.639375 6.2475 1.27875 6.375 1.9375 C6.58125 2.618125 6.7875 3.29875 7 4 C7.66 4.33 8.32 4.66 9 5 C9 4.34 9 3.68 9 3 C10.98 2.67 12.96 2.34 15 2 C16.5625 3.75 16.5625 3.75 18 6 C17.6875 8.25 17.6875 8.25 17 10 C15.02 10.33 13.04 10.66 11 11 C10.67 10.01 10.34 9.02 10 8 C8.68 8 7.36 8 6 8 C6 7.34 6 6.68 6 6 C2.7 5.67 -0.6 5.34 -4 5 C-3.67 4.01 -3.34 3.02 -3 2 C-2.01 2 -1.02 2 0 2 C0 1.34 0 0.68 0 0 Z " fill="#D0D8E3" transform="translate(37,102)"/>
<path d="M0 0 C-0.33 1.65 -0.66 3.3 -1 5 C-1.99 5 -2.98 5 -4 5 C-4 5.66 -4 6.32 -4 7 C-2.741875 6.649375 -1.48375 6.29875 -0.1875 5.9375 C2.94716388 5.06390515 3.78282108 4.92760703 7 6 C4.69 6.66 2.38 7.32 0 8 C0.33 8.99 0.66 9.98 1 11 C1.66386719 10.855625 2.32773437 10.71125 3.01171875 10.5625 C3.89472656 10.376875 4.77773438 10.19125 5.6875 10 C6.55761719 9.814375 7.42773438 9.62875 8.32421875 9.4375 C10.93712964 9.01027953 13.35813038 8.92383799 16 9 C14.67661368 9.68620031 13.34050052 10.34786461 12 11 C11.236875 11.391875 10.47375 11.78375 9.6875 12.1875 C6.1789275 13.24823122 3.57059064 12.66122049 0 12 C-0.99 12 -1.98 12 -3 12 C-3.66 12 -4.32 12 -5 12 C-8.05153707 5.65280289 -8.05153707 5.65280289 -7.8125 2.625 C-6.14310988 -0.71378024 -3.32135262 -0.08740402 0 0 Z " fill="#4293AD" transform="translate(29,108)"/>
<path d="M0 0 C6 6 6 6 6.0625 8.5625 C6.041875 9.366875 6.02125 10.17125 6 11 C-0.625 10.25 -0.625 10.25 -4 8 C-3.67 6.68 -3.34 5.36 -3 4 C-2.34 4 -1.68 4 -1 4 C-0.67 2.68 -0.34 1.36 0 0 Z " fill="#1827E2" transform="translate(51,94)"/>
<path d="M0 0 C1.485 0.99 1.485 0.99 3 2 C3.52078125 1.67257813 4.0415625 1.34515625 4.578125 1.0078125 C7.74712009 -0.31089836 10.3298619 -0.19340276 13.75 -0.125 C15.50570312 -0.09792969 15.50570312 -0.09792969 17.296875 -0.0703125 C18.63492188 -0.03550781 18.63492188 -0.03550781 20 0 C20 1.32 20 2.64 20 4 C19.21625 3.79375 18.4325 3.5875 17.625 3.375 C16.75875 3.25125 15.8925 3.1275 15 3 C14.34 3.66 13.68 4.32 13 5 C11.32618981 4.70462173 9.66088045 4.36106097 8 4 C5.32639576 3.90575421 2.67651974 3.95463526 0 4 C0 2.68 0 1.36 0 0 Z " fill="#777777" transform="translate(61,127)"/>
<path d="M0 0 C-1 2.5 -1 2.5 -3 5 C-8.55709554 5.52924719 -12.75438559 4.74853814 -18 3 C-11.92122066 -0.24201565 -6.81598387 -0.33278764 0 0 Z " fill="#212FE3" transform="translate(42,90)"/>
<path d="M0 0 C0.7734375 0.2165625 0.7734375 0.2165625 1.5625 0.4375 C7.53313406 1.81533863 11.20123534 2.01696162 17 0 C19.875 0.375 19.875 0.375 22 1 C20 4 20 4 17 5 C6.73873045 6.02320352 6.73873045 6.02320352 3.1015625 3.8828125 C1.75 2.5 1.75 2.5 0 0 Z " fill="#0589A0" transform="translate(25,118)"/>
<path d="M0 0 C2.64 0 5.28 0 8 0 C8.38218767 1.65614657 8.71395102 3.32457024 9 5 C8 6 8 6 6.15234375 6.09765625 C4.1015625 6.06510417 2.05078125 6.03255208 0 6 C0 4.02 0 2.04 0 0 Z " fill="#F7F8F9" transform="translate(175,101)"/>
<path d="M0 0 C1.6875 1.3125 1.6875 1.3125 3 3 C2.6875 5.1875 2.6875 5.1875 2 7 C0.02 7.33 -1.96 7.66 -4 8 C-4.33 7.01 -4.66 6.02 -5 5 C-4.01 5 -3.02 5 -2 5 C-2 4.34 -2 3.68 -2 3 C-3.32 2.67 -4.64 2.34 -6 2 C-6 1.34 -6 0.68 -6 0 C-2.25 -1.125 -2.25 -1.125 0 0 Z " fill="#C0D4C8" transform="translate(52,105)"/>
<path d="M0 0 C1.70736328 0.00966797 1.70736328 0.00966797 3.44921875 0.01953125 C6.3125 0.1875 6.3125 0.1875 8.3125 1.1875 C8.3125 1.8475 8.3125 2.5075 8.3125 3.1875 C7.49007812 3.16429688 6.66765625 3.14109375 5.8203125 3.1171875 C-1.29921361 3.00209123 -7.77904367 3.44089253 -14.6875 5.1875 C-10.57061564 0.42058127 -6.07298699 -0.07617201 0 0 Z " fill="#9DA4DF" transform="translate(35.6875,87.8125)"/>
<path d="M0 0 C0.66 0.66 1.32 1.32 2 2 C-0.31 4.64 -2.62 7.28 -5 10 C-6.32 9.67 -7.64 9.34 -9 9 C-8.34 6.36 -7.68 3.72 -7 1 C-6.67 1.66 -6.34 2.32 -6 3 C-2.75016865 1.91215032 -2.75016865 1.91215032 0 0 Z " fill="#D2D2D2" transform="translate(58,117)"/>
<path d="M0 0 C0.845625 0.350625 1.69125 0.70125 2.5625 1.0625 C6.45017533 2.12277509 9.08425639 1.78314872 13 1 C13.33 2.32 13.66 3.64 14 5 C9.38 5 4.76 5 0 5 C0 3.35 0 1.7 0 0 Z " fill="#787878" transform="translate(193,126)"/>
<path d="M0 0 C0.66 0.66 1.32 1.32 2 2 C1.67 2.66 1.34 3.32 1 4 C-2.25502641 4.96771055 -4.82890887 5.35903905 -8 4 C-8.33 3.01 -8.66 2.02 -9 1 C-5.66429909 -1.10025613 -3.74952434 -1.18406032 0 0 Z " fill="#0A1DEB" transform="translate(41,107)"/>
<path d="M0 0 C2.31 0 4.62 0 7 0 C7 0.66 7 1.32 7 2 C7.66386719 1.855625 8.32773437 1.71125 9.01171875 1.5625 C10.33623047 1.2840625 10.33623047 1.2840625 11.6875 1 C12.55761719 0.814375 13.42773438 0.62875 14.32421875 0.4375 C16.93712964 0.01027953 19.35813038 -0.07616201 22 0 C20.67661368 0.68620031 19.34050052 1.34786461 18 2 C17.236875 2.391875 16.47375 2.78375 15.6875 3.1875 C12.1789275 4.24823122 9.57059064 3.66122049 6 3 C5.01 3 4.02 3 3 3 C2.34 3 1.68 3 1 3 C0.67 2.01 0.34 1.02 0 0 Z " fill="#54B4CC" transform="translate(23,117)"/>
<path d="M0 0 C0.33 0 0.66 0 1 0 C1 1.65 1 3.3 1 5 C-2.63 5 -6.26 5 -10 5 C-10 3.68 -10 2.36 -10 1 C-7.03 1.33 -4.06 1.66 -1 2 C-0.67 1.34 -0.34 0.68 0 0 Z " fill="#757575" transform="translate(117,126)"/>
<path d="M0 0 C1.69057475 3.38114949 2.45815467 5.6299825 3.125 9.25 C3.29257813 10.14203125 3.46015625 11.0340625 3.6328125 11.953125 C3.75398438 12.62859375 3.87515625 13.3040625 4 14 C3.01 13.67 2.02 13.34 1 13 C1 15.31 1 17.62 1 20 C0.67 20 0.34 20 0 20 C0 13.4 0 6.8 0 0 Z " fill="#E0E2F0" transform="translate(103,103)"/>
<path d="M0 0 C1.48831242 0.00667405 2.97660807 0.01863442 4.46484375 0.03515625 C5.22345703 0.03966797 5.98207031 0.04417969 6.76367188 0.04882812 C8.64326246 0.06064945 10.52281274 0.07858547 12.40234375 0.09765625 C9.20070482 3.29929518 5.57003613 3.16659384 1.21484375 3.28515625 C-2.59765625 3.09765625 -2.59765625 3.09765625 -4.59765625 1.09765625 C-3.59765625 0.09765625 -3.59765625 0.09765625 0 0 Z " fill="#7F7F7F" transform="translate(34.59765625,131.90234375)"/>
<path d="M0 0 C0 1.32 0 2.64 0 4 C-3.3 4 -6.6 4 -10 4 C-9.67 3.01 -9.34 2.02 -9 1 C-5.8035914 -0.06546953 -3.34252724 -0.07427838 0 0 Z " fill="#7A7A7A" transform="translate(164,127)"/>
<path d="M0 0 C3.96 1.98 3.96 1.98 8 4 C8 4.66 8 5.32 8 6 C6.68 6 5.36 6 4 6 C4 6.66 4 7.32 4 8 C3.01 7.67 2.02 7.34 1 7 C0.67 4.69 0.34 2.38 0 0 Z " fill="#F2F3F5" transform="translate(42,99)"/>
<path d="M0 0 C0 1.65 0 3.3 0 5 C-0.556875 4.62875 -1.11375 4.2575 -1.6875 3.875 C-4.05716353 2.70484137 -4.05716353 2.70484137 -6.75 3.875 C-7.86375 4.431875 -7.86375 4.431875 -9 5 C-9 3.35 -9 1.7 -9 0 C-5.52176885 -1.15941038 -3.54104422 -0.70820884 0 0 Z " fill="#6E77D8" transform="translate(42,101)"/>
<path d="M0 0 C2.31 0.33 4.62 0.66 7 1 C7 2.32 7 3.64 7 5 C5.68 5 4.36 5 3 5 C2.67 4.34 2.34 3.68 2 3 C1.67 3.66 1.34 4.32 1 5 C0.34 5 -0.32 5 -1 5 C-0.67 3.35 -0.34 1.7 0 0 Z " fill="#909090" transform="translate(121,126)"/>
<path d="M0 0 C1.65 0.33 3.3 0.66 5 1 C5.33 1.99 5.66 2.98 6 4 C1.94568308 5.15837626 -0.21812119 4.83691257 -4 3 C-2.68 2.67 -1.36 2.34 0 2 C0 1.34 0 0.68 0 0 Z " fill="#4CA2C9" transform="translate(42,109)"/>
<path d="M0 0 C0.33 0.66 0.66 1.32 1 2 C-0.98 4.97 -0.98 4.97 -3 8 C-4.65 7.67 -6.3 7.34 -8 7 C-7.360625 6.38125 -6.72125 5.7625 -6.0625 5.125 C-3.96116416 3.17402388 -3.96116416 3.17402388 -3 1 C-2.01 0.67 -1.02 0.34 0 0 Z " fill="#2891AF" transform="translate(51,112)"/>
<path d="M0 0 C0.66 1.32 1.32 2.64 2 4 C0.02 4.33 -1.96 4.66 -4 5 C-4 4.34 -4 3.68 -4 3 C-5.65 3 -7.3 3 -9 3 C-6.03312999 1.35173889 -3.34373475 0.55728913 0 0 Z " fill="#0883A6" transform="translate(34,114)"/>
<path d="M0 0 C1.65 0 3.3 0 5 0 C5.33 1.32 5.66 2.64 6 4 C4.02 4 2.04 4 0 4 C0 2.68 0 1.36 0 0 Z " fill="#828282" transform="translate(142,127)"/>
<path d="M0 0 C1.32 1.32 2.64 2.64 4 4 C3.67 4.99 3.34 5.98 3 7 C2.34 7 1.68 7 1 7 C1 6.34 1 5.68 1 5 C-0.32 5.33 -1.64 5.66 -3 6 C-3 5.34 -3 4.68 -3 4 C-2.34 4 -1.68 4 -1 4 C-0.67 2.68 -0.34 1.36 0 0 Z " fill="#3C4AE1" transform="translate(51,94)"/>
<path d="M0 0 C1.37562854 1.28965176 2.70766393 2.62689293 4 4 C4 4.66 4 5.32 4 6 C2.68 5.67 1.36 5.34 0 5 C-0.33 5.99 -0.66 6.98 -1 8 C-1.93065133 5.39417629 -2.14917407 4.35801776 -1.0625 1.75 C-0.711875 1.1725 -0.36125 0.595 0 0 Z " fill="#4C4C4C" transform="translate(24,100)"/>
<path d="M0 0 C1.65 0 3.3 0 5 0 C4.67 1.32 4.34 2.64 4 4 C2.35 4 0.7 4 -1 4 C-0.67 2.68 -0.34 1.36 0 0 Z " fill="#848484" transform="translate(166,127)"/>
<path d="M0 0 C2.475 0.495 2.475 0.495 5 1 C4.67 2.32 4.34 3.64 4 5 C2.68 5 1.36 5 0 5 C0 3.35 0 1.7 0 0 Z " fill="#8D8D8D" transform="translate(181,126)"/>
<path d="M0 0 C0.66 1.32 1.32 2.64 2 4 C2.66 3.34 3.32 2.68 4 2 C3.67 3.98 3.34 5.96 3 8 C1.68 7.67 0.36 7.34 -1 7 C-0.67 4.69 -0.34 2.38 0 0 Z " fill="#1C2DE7" transform="translate(114,105)"/>
<path d="M0 0 C-3.03525486 2.02350324 -4.19426202 2.32124018 -7.6875 2.625 C-8.49574219 2.69976562 -9.30398437 2.77453125 -10.13671875 2.8515625 C-10.75160156 2.90054688 -11.36648437 2.94953125 -12 3 C-4.82142857 -1.78571429 -4.82142857 -1.78571429 0 0 Z " fill="#C5C5C5" transform="translate(52,130)"/>
<path d="M0 0 C2.33333333 0 4.66666667 0 7 0 C6.34 1.32 5.68 2.64 5 4 C3.35 4 1.7 4 0 4 C0 2.68 0 1.36 0 0 Z " fill="#5F5F5F" transform="translate(83,127)"/>
<path d="M0 0 C1.98 0 3.96 0 6 0 C6 1.32 6 2.64 6 4 C4.68 4 3.36 4 2 4 C1.34 2.68 0.68 1.36 0 0 Z " fill="#949494" transform="translate(75,127)"/>
<path d="M0 0 C0.33 0.66 0.66 1.32 1 2 C3.02463255 2.65213292 3.02463255 2.65213292 5 3 C3.71034824 4.37562854 2.37310707 5.70766393 1 7 C0.34 7 -0.32 7 -1 7 C-0.67 4.69 -0.34 2.38 0 0 Z " fill="#1F1F1F" transform="translate(51,118)"/>
<path d="M0 0 C0 1.65 0 3.3 0 5 C-2.475 4.01 -2.475 4.01 -5 3 C-5 2.34 -5 1.68 -5 1 C-3 0 -3 0 0 0 Z " fill="#0E1FE4" transform="translate(52,99)"/>
<path d="M0 0 C1.65 0 3.3 0 5 0 C5 1.32 5 2.64 5 4 C3.35 4 1.7 4 0 4 C0 2.68 0 1.36 0 0 Z " fill="#818181" transform="translate(187,127)"/>
<path d="M0 0 C3.14737182 0.69941596 6.02588876 1.76078698 9 3 C7.02 3.99 7.02 3.99 5 5 C3.35 3.35 1.7 1.7 0 0 Z " fill="#0F93AA" transform="translate(25,118)"/>
<path d="M0 0 C0.61875 0.474375 1.2375 0.94875 1.875 1.4375 C3.90705546 3.02417441 3.90705546 3.02417441 6 4 C5.34 4.66 4.68 5.32 4 6 C2 4.6875 2 4.6875 0 3 C0 2.01 0 1.02 0 0 Z M-1 3 C-0.67 3.66 -0.34 4.32 0 5 C-0.99 4.67 -1.98 4.34 -3 4 C-2.34 3.67 -1.68 3.34 -1 3 Z " fill="#D2D6EE" transform="translate(42,96)"/>
<path d="M0 0 C0.33 0 0.66 0 1 0 C1.12375 0.94875 1.2475 1.8975 1.375 2.875 C1.71687177 6.08667191 1.71687177 6.08667191 4 8 C2.68 8.99 1.36 9.98 0 11 C0 7.37 0 3.74 0 0 Z " fill="#DCE3F4" transform="translate(70,95)"/>
<path d="M0 0 C-0.33 0.66 -0.66 1.32 -1 2 C-3.64860427 2.59355614 -6.29197322 2.74209269 -9 3 C-8.67 2.01 -8.34 1.02 -8 0 C-5.13822943 -1.43088528 -3.06624227 -0.59991697 0 0 Z " fill="#02778E" transform="translate(47,119)"/>
<path d="M0 0 C-0.33 1.65 -0.66 3.3 -1 5 C-2.98 5.33 -4.96 5.66 -7 6 C-5.81636731 2.44910192 -3.99368042 0 0 0 Z " fill="#2734DD" transform="translate(22,98)"/>
</svg>
